#!OML:ASF E:\acrobat2\Project_11_07_03\Capture day 1\Session 1\Acrobat.ASF
:FULLY-SPECIFIED
:DEGREES
365
root 10.5464 15.2615 31.7408 -125.213 -0.191694 -180.364
lowerback 31.1559 2.11382 3.4827
upperback 10.8424 1.25992 -1.35851
thorax -4.59898 -0.131406 -3.88024
lowerneck 15.2838 -4.03745 0.405503
upperneck -8.74201 -4.83379 3.57953
head -5.03005 -2.62014 1.46998
rclavicle 2.14687e-014 -3.2054e-015
rhumerus 67.3618 -10.9258 -54.5083
rradius 18.3248
rwrist 12.142
rhand -9.92567 -50.5932
rfingers 7.12502
rthumb 16.0552 -79.948
lclavicle 2.14687e-014 -3.2054e-015
lhumerus 76.808 0.466298 62.2019
lradius 13.1974
lwrist -3.50039
lhand -24.979 -5.35712
lfingers 7.12502
lthumb 1.53181 24.6171
rfemur -73.5438 -33.2646 7.70768
rtibia 52.5363
rfoot -30.2492 -12.4199
rtoes -30.7307
lfemur -76.0587 32.9573 -12.556
ltibia 57.1737
lfoot -26.2328 -14.9961
ltoes 21.417
366
root 10.5471 15.146 31.5697 -125.44 0.225583 -180.397
lowerback 32.2409 -0.536228 1.31527
upperback 11.1525 2.26778 -1.87723
thorax -4.78489 2.09676 -3.73033
lowerneck 15.6929 -4.11292 0.674506
upperneck -8.56558 -4.92718 3.1649
head -5.05619 -2.64773 1.31319
rclavicle -7.15625e-015 -7.40473e-015
rhumerus 67.2665 -10.2565 -53.4598
rradius 18.4475
rwrist 10.9442
rhand -10.3868 -50.8836
rfingers 7.12502
rthumb 15.6112 -80.2737
lclavicle -7.15625e-015 -7.40473e-015
lhumerus 76.6822 0.428266 62.5752
lradius 13.9745
lwrist -3.01787
lhand -24.8581 -5.17047
lfingers 7.12502
lthumb 1.64857 24.8029
rfemur -73.0128 -33.0128 6.64844
rtibia 53.9187
rfoot -31.6511 -11.891
rtoes -30.7025
lfemur -75.3336 33.0353 -12.2117
ltibia 58.3872
lfoot -27.5731 -15.6969
ltoes 19.1152
367
root 10.5499 15.0335 31.3867 -125.399 1.05256 -180.62
lowerback 33.5033 -0.365194 0.25602
upperback 11.1276 2.29607 -2.22131
thorax -4.7914 2.15448 -3.3024
lowerneck 16.3021 -4.05726 0.519155
upperneck -8.78016 -4.82164 3.52877
head -5.21083 -2.62098 1.46106
rclavicle 1.74931e-014 3.67752e-015
rhumerus 67.0839 -9.56047 -51.7755
rradius 18.7694
rwrist 8.8581
rhand -10.7376 -51.6135
rfingers 7.12502
rthumb 15.2733 -81.0296
lclavicle 1.74931e-014 3.67752e-015
lhumerus 76.5359 0.428525 62.3591
lradius 14.8895
lwrist -1.52342
lhand -24.2602 -5.00886
lfingers 7.12502
lthumb 2.22608 24.9593
rfemur -72.7407 -32.7545 5.33209
rtibia 55.0328
rfoot -32.7248 -11.9573
rtoes -32.593
lfemur -74.7092 33.11 -12.3965
ltibia 59.3371
lfoot -28.961 -16.2541
ltoes 17.2288
368
root 10.5439 14.9258 31.1888 -125.282 1.19833 -180.4
lowerback 34.3829 -0.409472 0.0870616
upperback 11.4464 2.33133 -2.28934
thorax -4.76296 2.21451 -3.31339
lowerneck 16.596 -4.08687 0.661681
upperneck -8.7019 -4.84845 3.35177
head -5.24086 -2.62756 1.39138
rclavicle 3.18055e-015 -1.28216e-014
rhumerus 67.3149 -9.79689 -57.1213
rradius 18.6892
rwrist 13.6312
rhand -11.2167 -51.1998
rfingers 7.12502
rthumb 14.8117 -80.6504
lclavicle 3.18055e-015 -1.28216e-014
lhumerus 76.5162 0.525196 61.9233
lradius 15.6475
lwrist 1.16079
lhand -23.5352 -5.13744
lfingers 7.12502
lthumb 2.92621 24.8222
rfemur -72.2384 -32.3657 4.87152
rtibia 55.7298
rfoot -33.6146 -12.039
rtoes -34.5428
lfemur -74.0848 33.2911 -11.8002
ltibia 60.1209
lfoot -30.3408 -16.396
ltoes 13.9611
369
root 10.5297 14.8245 30.9784 -125.175 0.659813 -179.901
lowerback 35.2753 -0.704615 0.777947
upperback 11.7932 2.36498 -2.20796
thorax -4.69221 2.29331 -3.62172
lowerneck 16.7151 -4.22842 0.801479
upperneck -8.16906 -5.04517 3.13323
head -5.09784 -2.71068 1.3118
rclavicle 6.36111e-015 -6.06293e-015
rhumerus 67.5796 -9.27442 -56.2458
rradius 18.7514
rwrist 11.9544
rhand -11.6368 -51.9691
rfingers 7.12502
rthumb 14.4069 -81.4491
lclavicle 6.36111e-015 -6.06293e-015
lhumerus 76.2364 0.264168 60.7796
lradius 16.5674
lwrist 1.9301
lhand -24.1536 -5.07332
lfingers 7.12502
lthumb 2.32906 24.8937
rfemur -71.3569 -31.9636 5.01346
rtibia 56.1123
rfoot -34.5801 -11.7462
rtoes -35.3434
lfemur -73.4145 33.3108 -10.4462
ltibia 60.8553
lfoot -31.7746 -16.1658
ltoes 9.14192
370
root 10.5189 14.7305 30.7597 -124.792 0.38551 -179.582
lowerback 35.8676 -0.90687 1.15946
upperback 12.1518 2.39501 -2.20796
thorax -4.49899 2.36125 -3.83789
lowerneck 16.8725 -4.20179 0.600435
upperneck -7.86639 -5.01682 3.47278
head -5.0145 -2.71332 1.4453
rclavicle 7.95139e-016 1.22253e-014
rhumerus 67.3461 -8.89255 -55.9083
rradius 19.378
rwrist 10.1653
rhand -12.9078 -52.3657
rfingers 7.12502
rthumb 13.1821 -81.929
lclavicle 7.95139e-016 1.22253e-014
lhumerus 76.1515 0.0399315 61.163
lradius 17.2083
lwrist 1.98033
lhand -25.9465 -4.58411
lfingers 7.12502
lthumb 0.597373 25.3948
rfemur -70.7068 -31.5248 4.88591
rtibia 56.4441
rfoot -35.7997 -11.5159
rtoes -35.8003
lfemur -72.9696 33.1847 -9.51045
ltibia 61.5335
lfoot -33.028 -16.3968
ltoes 7.29664
371
root 10.5123 14.6423 30.5301 -124.043 0.455554 -179.422
lowerback 36.0628 -0.990827 1.14167
upperback 12.5343 2.39961 -2.33651
thorax -4.14582 2.40322 -3.95454
lowerneck 17.1432 -3.98114 0.3522
upperneck -7.74827 -4.73942 3.80212
head -5.01175 -2.59491 1.56747
rclavicle -5.56597e-015 1.78906e-015
rhumerus 67.3501 -8.90399 -58.9747
rradius 19.9726
rwrist 11.2668
rhand -14.4147 -52.0501
rfingers 7.12502
rthumb 11.7292 -81.7017
lclavicle -5.56597e-015 1.78906e-015
lhumerus 76.0669 -0.117674 61.2806
lradius 17.9928
lwrist 2.7889
lhand -27.0621 -5.56084
lfingers 7.12502
lthumb -0.480028 24.4184
rfemur -70.4718 -31.0732 4.58881
rtibia 56.7184
rfoot -37.0617 -11.6304
rtoes -36.4844
lfemur -72.8324 33.1297 -9.19763
ltibia 62.0899
lfoot -34.4814 -16.1506
ltoes 4.55433
372
root 10.5049 14.5569 30.2873 -123.07 0.533339 -179.276
lowerback 36.0348 -1.0677 1.13696
upperback 12.8937 2.38671 -2.4877
thorax -3.74232 2.42851 -4.08933
lowerneck 16.6649 -4.02155 0.343592
upperneck -6.47612 -4.80786 4.16066
head -4.52786 -2.63981 1.65127
rclavicle 1.35174e-014 -4.96962e-015
rhumerus 67.332 -8.71266 -60.4845
rradius 20.6948
rwrist 10.7922
rhand -15.5653 -51.8108
rfingers 7.12502
rthumb 10.6195 -81.5225
lclavicle 1.35174e-014 -4.96962e-015
lhumerus 75.849 -0.336969 60.7828
lradius 19.0747
lwrist 4.20653
lhand -28.2284 -6.42755
lfingers 7.12502
lthumb -1.60649 23.5461
rfemur -70.4092 -30.6959 4.42614
rtibia 56.7519
rfoot -37.8321 -12.4419
rtoes -38.6993
lfemur -72.8584 33.1426 -9.09178
ltibia 62.4761
lfoot -36.1419 -15.0654
ltoes -1.35073
373
root 10.497 14.4774 30.0344 -121.872 0.551352 -179.085
lowerback 35.8315 -1.13769 1.22134
upperback 13.2201 2.38308 -2.62797
thorax -3.31397 2.45075 -4.25838
lowerneck 17.3497 -4.07312 0.859624
upperneck -7.1105 -4.79489 3.52683
head -4.86188 -2.61497 1.40009
rclavicle -7.95139e-016 -3.97569e-015
rhumerus 67.1148 -8.32114 -61.0927
rradius 21.699
rwrist 9.62718
rhand -16.6028 -52.3426
rfingers 7.12502
rthumb 9.6186 -82.103
lclavicle -7.95139e-016 -3.97569e-015
lhumerus 75.4378 -0.636642 60.2598
lradius 20.3498
lwrist 5.38616
lhand -29.317 -7.36169
lfingers 7.12502
lthumb -2.65785 22.6015
rfemur -70.5032 -30.304 4.44448
rtibia 56.5274
rfoot -37.9967 -14.1612
rtoes -42.652
lfemur -73.1351 33.2493 -9.10215
ltibia 62.7647
lfoot -37.3902 -14.7245
ltoes -4.20085
374
root 10.4899 14.4046 29.7705 -120.372 0.627213 -178.931
lowerback 35.3267 -1.132 1.20045
upperback 13.5968 2.42766 -2.70392
thorax -2.72768 2.48569 -4.30774
lowerneck 16.9582 -4.42729 1.49114
upperneck -6.12596 -5.25699 2.70706
head -4.52163 -2.79537 1.05925
rclavicle 3.02153e-014 5.1684e-015
rhumerus 66.3919 -7.75306 -61.1348
rradius 23.4506
rwrist 8.28676
rhand -18.6563 -54.3591
rfingers 7.12502
rthumb 7.63692 -84.2012
lclavicle 3.02153e-014 5.1684e-015
lhumerus 75.095 -0.885885 59.8111
lradius 21.569
lwrist 6.2515
lhand -30.4768 -9.0886
lfingers 7.12502
lthumb -3.77795 20.8577
rfemur -70.79 -29.9263 4.42098
rtibia 56.4573
rfoot -39.0839 -13.9709
rtoes -42.7586
lfemur -73.1575 33.1692 -9.10327
ltibia 62.2849
lfoot -38.6369 -14.0679
ltoes -7.65898
375
root 10.4822 14.3348 29.4934 -118.628 0.749423 -178.833
lowerback 34.5515 -1.05728 1.06484
upperback 14.0296 2.51879 -2.6729
thorax -1.98592 2.53045 -4.18657
lowerneck 17.4515 -4.48196 1.93897
upperneck -7.40486 -5.25988 1.99302
head -5.03141 -2.76884 0.801519
rclavicle -3.18055e-015 5.36719e-015
rhumerus 65.9018 -7.22715 -60.8736
rradius 25.0382
rwrist 7.4735
rhand -22.6548 -56.7275
rfingers 7.12502
rthumb 3.77643 -86.6738
lclavicle -3.18055e-015 5.36719e-015
lhumerus 74.7275 -1.36955 58.107
lradius 23.5131
lwrist 8.87095
lhand -31.9912 -9.11636
lfingers 7.12502
lthumb -5.24022 20.7989
rfemur -71.1966 -29.6568 4.39346
rtibia 56.2262
rfoot -40.1786 -13.675
rtoes -42.6596
lfemur -73.5131 33.1133 -9.36615
ltibia 61.8246
lfoot -39.7034 -13.8524
ltoes -9.65071
376
root 10.4726 14.2671 29.2032 -116.664 0.83957 -178.71
lowerback 33.5504 -0.936119 0.919748
upperback 14.4794 2.65435 -2.52913
thorax -1.14141 2.58337 -3.9456
lowerneck 17.0967 -4.28711 1.36983
upperneck -6.67412 -5.1061 2.43299
head -4.72021 -2.70322 0.992861
rclavicle -1.59028e-014 1.15295e-014
rhumerus 65.9091 -7.04191 -61.1103
rradius 26.3466
rwrist 8.38977
rhand -25.805 -59.4726
rfingers 7.12502
rthumb 0.734054 -89.4511
lclavicle -1.59028e-014 1.15295e-014
lhumerus 74.3176 -1.91936 56.4337
lradius 25.5396
lwrist 10.9531
lhand -36.1425 -13.1788
lfingers 7.12502
lthumb -9.24729 16.5984
rfemur -71.6126 -29.443 4.44422
rtibia 55.6199
rfoot -41.0181 -13.2576
rtoes -42.3432
lfemur -74.0435 33.065 -9.68801
ltibia 61.2961
lfoot -40.1541 -14.7453
ltoes -7.33072
